<svg xmlns="http://www.w3.org/2000/svg" version="1.1" xmlns:xlink="http://www.w3.org/1999/xlink" xmlns:svgjs="http://svgjs.dev/svgjs" width="100%" height="100%" viewBox="0 0 1000 600"><rect width="1000" height="600" x="0" y="0" fill="#072c50"/><g><circle r="166.66666666666666" cx="447.27741495768225" cy="469.4996193922559" fill="#b88746" transform="matrix(0.4454569696832601,0,0,0.4454569696832601,0,90.85813228872277)"/><path d="M336.48681404389254 425.05418249243144Q326.74165924707137 425.05418249243144 321.2499145549401 420.6930911192684Q315.7850901799271 416.3589200632236 315.7850901799271 409.2519563439949L315.7850901799271 409.2519563439949Q315.7850901799271 403.2756459437344 321.8421615315425 399.0222358390445L321.8421615315425 399.0222358390445Q328.2761173228139 394.4996225631717 335.46384199339747 394.4996225631717Q342.65156666398104 394.4996225631717 346.58193296325146 395.8994790533228Q350.5122992625219 397.32625586059225 353.2581716085875 399.58756249852865L353.2581716085875 399.58756249852865Q358.7499163007187 404.2447773599929 358.7499163007187 410.3826096629631L358.7499163007187 410.3826096629631Q358.7499163007187 416.5473622830516 352.50440272927534 420.8007723877415L352.50440272927534 420.8007723877415Q346.25888915783196 425.05418249243144 336.48681404389254 425.05418249243144ZM316.61962001059413 542.6959682993607L316.61962001059413 441.61017752018006L357.32313949344933 441.61017752018006L357.32313949344933 542.6959682993607L316.61962001059413 542.6959682993607ZM396.68064312038996 484.8711271292728L396.68064312038996 484.8711271292728L386.28940071272984 485.436453788757Q384.0011737576752 485.436453788757 382.5474766332875 484.3058004697887Q381.06685919178153 483.1751471508205 381.06685919178153 481.37148590389506L381.06685919178153 481.37148590389506Q381.06685919178153 477.19883675056 386.28940071272984 477.19883675056L386.28940071272984 477.19883675056Q386.28940071272984 477.19883675056 399.8033999061117 478.06028689834534L399.8033999061117 478.06028689834534L409.76391723987916 478.06028689834534L424.8123745090036 477.19883675056Q430.19643793266164 477.19883675056 430.19643793266164 481.3176452696585Q430.19643793266164 485.436453788757 424.43549006934745 485.436453788757L424.43549006934745 485.436453788757Q422.82027104225006 485.436453788757 421.3934942349806 485.35569283740205L421.3934942349806 485.35569283740205L418.45917966908695 485.14033030045573Q415.9017495428494 484.8711271292728 410.89457055884736 484.8711271292728L410.89457055884736 484.8711271292728Q403.78760683961866 484.8711271292728 396.68064312038996 484.8711271292728ZM570.7474136072561 535.7774467999601L570.7474136072561 535.7774467999601L570.9358558270842 529.2627300573338L570.9358558270842 514.2950337395644Q557.5833785364122 536.5312156792722 531.5514318830252 542.5882870308876L531.5514318830252 542.5882870308876Q523.3138148448284 544.4996295462862 512.3841660948024 544.4996295462862Q501.4545173447765 544.4996295462862 489.7710997154384 539.9500959532952Q478.08768208610036 535.4005623603041 469.2847383884194 526.786060882451L469.2847383884194 526.786060882451Q449.9828710146051 508.0495201681209 449.9828710146051 477.4949602388612L449.9828710146051 477.4949602388612Q449.9828710146051 448.2325755312795 470.4153917073876 427.9884970583251L470.4153917073876 427.9884970583251Q491.7093625479554 407.07141065741337 523.8791415043124 407.07141065741337L523.8791415043124 407.07141065741337Q540.1659333608782 407.07141065741337 553.3299684317222 413.12848200902874L553.3299684317222 413.12848200902874Q561.379143250091 416.73580450287966 564.6903422556408 419.80472065436476Q568.0015412611905 422.87363680584986 568.0015412611905 424.73113868701193Q568.0015412611905 426.56172025105565 566.8708879422223 427.9077361069702Q565.7133143061359 429.2268316457664 563.694290522264 429.2268316457664Q561.648346421274 429.2268316457664 559.1985975635096 427.0462859591849L559.1985975635096 427.0462859591849Q551.9031916244528 420.61233016791346 546.357606298085 418.62022670116Q540.8389412888355 416.62812323440653 537.5277422832858 415.79359340373946Q534.216543277736 414.9321432559542 531.5514318830252 414.55525881629814L531.5514318830252 414.55525881629814Q527.4864639981633 413.989932156814 521.9139583546772 413.989932156814Q516.3145323940728 413.989932156814 511.5765565812537 414.9321432559542L511.5765565812537 414.9321432559542L511.5765565812537 537.3926658270575Q512.626448948867 537.5003470955307 513.6763413164804 537.5003470955307L513.6763413164804 537.5003470955307L515.5607635147608 537.5003470955307Q543.665574586256 537.5003470955307 561.08301976179 516.2063762549628L561.08301976179 516.2063762549628Q567.0593301620503 508.91097031590624 570.9358558270842 498.97737329925707L570.9358558270842 498.97737329925707L570.9358558270842 489.87830611327485Q570.9358558270842 489.87830611327485 570.451290118955 481.37148590389506L570.451290118955 481.37148590389506Q570.451290118955 476.36430691989307 574.435497052462 476.36430691989307L574.435497052462 476.36430691989307Q576.5083614705703 476.36430691989307 577.6390147895385 477.73724309292584Q578.7696681085067 479.0832589488404 578.7696681085067 481.0753624155939L578.7696681085067 481.0753624155939L578.2043414490226 488.9360950141347L578.2043414490226 524.1478698048586L578.7696681085067 538.8194426343268Q578.7696681085067 541.0807492722633 577.504413203947 542.3998448110596Q576.2391582993874 543.7458606669741 574.5162580038168 543.7458606669741L574.5162580038168 543.7458606669741Q570.3705291676001 543.7458606669741 570.3705291676001 539.3847692938111L570.3705291676001 539.3847692938111Q570.3705291676001 538.2541159748428 570.7474136072561 535.7774467999601Z " fill="#072c50" transform="matrix(0.4454569696832601,0,0,0.4454569696832601,0,90.85813228872277)"/><path d="M697.2773846507171 515.467370753169L697.2773846507171 399.73380229058904L738.9647323260824 399.73380229058904L738.9647323260824 515.467370753169L697.2773846507171 515.467370753169ZM860.8397404015509 450.7030984717976L860.8397404015509 450.7030984717976Q861.0025816034079 452.65719289408037 861.0025816034079 454.6112873163631L861.0025816034079 454.6112873163631L861.0025816034079 515.467370753169L825.9219341176652 515.467370753169L825.9219341176652 436.1404424200237Q825.0146759930337 435.7217079009631 823.7817354646888 435.7217079009631L823.7817354646888 435.7217079009631L821.1762762349783 435.7217079009631Q814.7789433048861 435.7217079009631 806.2879377794907 444.46860674356213L806.2879377794907 444.46860674356213Q803.6592155209437 447.16711808861925 801.2863865796003 450.4472051545939L801.2863865796003 450.4472051545939L801.2863865796003 515.467370753169L766.1359500073474 515.467370753169L766.1359500073474 428.1146974713624L801.2863865796003 428.1146974713624L801.2863865796003 441.2815717929343Q815.1278887374365 426.64912665465033 832.2029519035739 426.64912665465033L832.2029519035739 426.64912665465033Q854.3028292984384 426.64912665465033 859.443958671349 443.00303592685003L859.443958671349 443.00303592685003Q866.4693933800322 434.90750189167863 874.9371358765909 430.78994578758284Q883.4048783731496 426.64912665465033 891.9889360138916 426.64912665465033L891.9889360138916 426.64912665465033Q906.6446441810122 426.64912665465033 913.6700788896956 433.6047722768235Q920.6955135983787 440.5604178989966 920.6955135983787 454.6112873163631L920.6955135983787 454.6112873163631L920.6955135983787 515.467370753169L885.614866112636 515.467370753169L885.614866112636 436.0473903046769Q884.8704491898616 435.7217079009631 881.9393075564374 435.7217079009631Q878.9849028941765 435.7217079009631 876.4957588086497 436.8383332851247Q874.0066147231228 437.93169564044956 871.3778924645758 439.90905309156904L871.3778924645758 439.90905309156904Q865.6551873707479 444.07313525333825 860.8397404015509 450.7030984717976ZM1002.1626405845004 515.467370753169L1002.1626405845004 510.0703480630546Q991.6942776079854 517.0259936852278 978.9228747766376 517.0259936852278L978.9228747766376 517.0259936852278Q962.010652812357 517.0259936852278 951.7749201242093 508.5117251309958L951.7749201242093 508.5117251309958Q941.1437159458376 499.76482628839676 941.1437159458376 484.22512302548154L941.1437159458376 484.22512302548154Q941.1437159458376 470.4766729829921 951.7051310376992 461.659985053883L951.7051310376992 461.659985053883Q962.4991764179276 452.75024500942715 980.0860262184724 452.75024500942715L980.0860262184724 452.75024500942715Q991.8571188098424 452.75024500942715 1002.1626405845004 457.2400095749101L1002.1626405845004 457.2400095749101L1002.1626405845004 434.7446606898217Q994.7184713567565 432.6277250656821 989.019029291765 432.6277250656821Q983.3428502556105 432.6277250656821 979.4113983822083 433.1162486712528Q975.5032095376428 433.6047722768235 971.9672291544643 434.5818194879649L971.9672291544643 434.5818194879649Q964.3834817537004 436.6987551121045 960.4520298802981 440.3045245817929L960.4520298802981 440.3045245817929Q958.1489900254649 442.4447232347693 956.2646846896923 442.4447232347693Q954.4036423827563 442.4447232347693 953.4033321427783 441.4909390524646Q952.4262849316367 440.5604178989966 952.4262849316367 439.3972664571616Q952.4262849316367 438.2573780441634 952.8450194506975 437.3268568906954Q953.2404909409213 436.37307270839074 954.4036423827563 435.39602549724935L954.4036423827563 435.39602549724935Q956.8462604106096 433.2790898731097 962.5689655044378 431.1388912201333L962.5689655044378 431.1388912201333Q974.4331102111546 426.64912665465033 986.3670440043813 426.64912665465033L986.3670440043813 426.64912665465033Q1022.6806320184692 426.64912665465033 1032.75352350476 443.98008313799147L1032.75352350476 443.98008313799147Q1037.1502359548963 451.680145682939 1037.1502359548963 464.1956551970833L1037.1502359548963 464.1956551970833L1037.1502359548963 515.467370753169L1002.1626405845004 515.467370753169ZM1002.1626405845004 503.0449133543714L1002.1626405845004 463.6140794761658Q991.8571188098424 458.6357913051121 981.6213861216947 458.6357913051121L981.6213861216947 458.6357913051121Q979.9929741031258 458.6357913051121 978.5274032864136 458.8684215934791L978.5274032864136 458.8684215934791L978.5274032864136 510.88455407233914Q978.9228747766376 510.9776061876859 979.4113983822083 510.9776061876859Q979.9231850166157 510.9776061876859 980.4117086221863 510.9776061876859L980.4117086221863 510.9776061876859Q991.6012254926388 510.9776061876859 1002.1626405845004 503.0449133543714L1002.1626405845004 503.0449133543714ZM1080.5823107930144 488.80793970631134L1080.5823107930144 488.80793970631134Q1073.3009827671274 491.0179274457978 1073.3009827671274 493.62338667550813L1073.3009827671274 493.62338667550813Q1073.3009827671274 496.1590568187084 1077.5581170442433 497.1361040298497L1077.5581170442433 497.1361040298497Q1085.8164922812716 499.1134614809692 1100.3093592465355 499.48566994235637Q1114.7789631829626 499.85787840374354 1122.083554237686 501.6956576818428Q1129.4114083212464 503.5334369599421 1133.7383316848725 506.30173739150933L1133.7383316848725 506.30173739150933Q1141.601235431677 511.4661297932566 1141.601235431677 519.9571353186519L1141.601235431677 519.9571353186519Q1141.601235431677 530.5883394970235 1131.0398203398154 537.2183027154829L1131.0398203398154 537.2183027154829Q1119.3617798637922 544.4996307413699 1098.099371507049 544.4996307413699L1098.099371507049 544.4996307413699Q1076.0925462275313 544.4996307413699 1061.7857834929612 537.9627196382573L1061.7857834929612 537.9627196382573Q1056.6213910912138 535.4270494950571 1056.6213910912138 532.2400145444292L1056.6213910912138 532.2400145444292Q1056.6213910912138 530.8442328142273 1057.6449643600286 530.0300268049427Q1058.6685376288433 529.2158207956584 1059.8084260418416 529.2158207956584L1059.8084260418416 529.2158207956584Q1061.2042077720437 529.2158207956584 1062.9954609924694 530.2626570933098L1062.9954609924694 530.2626570933098Q1067.1828061830754 532.6354860346531 1070.7420495950903 534.2406350243855Q1074.3012930071054 535.822520985281 1081.8850404078694 537.3113548308297Q1089.49205083747 538.7769256475417 1096.5872746326634 538.7769256475417Q1103.65923539902 538.7769256475417 1108.1024739068296 538.1720868977876Q1112.5689754434761 537.5439851191968 1115.5001170769 536.7297791099122L1115.5001170769 536.7297791099122Q1121.315874286075 535.0083149759964 1121.315874286075 532.8913793518568L1121.315874286075 532.8913793518568Q1121.315874286075 530.9140219007375 1120.1759858730768 530.0300268049427Q1119.0360974600785 529.1227686803115 1117.1750551531425 528.4248778152105Q1115.3372758750431 527.7269869501094 1112.0804518379052 527.1686742580287L1112.0804518379052 527.1686742580287Q1105.3574365040993 526.0287858450305 1093.8422372299328 525.447210124113Q1082.30377492693 524.8656344031956 1075.6040226219604 523.1906963269532Q1068.9042703169912 521.5157582507109 1064.647136039875 518.9102990210004L1064.647136039875 518.9102990210004Q1056.3887608028467 513.9087478211101 1056.3887608028467 505.41774229571473L1056.3887608028467 505.41774229571473Q1056.3887608028467 493.1348630699374 1072.9753003634135 485.5278526403367L1072.9753003634135 485.5278526403367Q1065.3682899338128 481.3637704785675 1060.8785253683297 474.52444000057784Q1056.3887608028467 467.70837255142493 1056.3887608028467 459.72915366043696Q1056.3887608028467 451.74993476944906 1059.3664284939443 445.9109145314375Q1062.3440961850417 440.07189429342594 1067.7411188751562 435.8147600163099L1067.7411188751562 435.8147600163099Q1079.1167399763021 426.64912665465033 1097.099061267071 426.64912665465033L1097.099061267071 426.64912665465033Q1105.1248062157322 426.64912665465033 1113.2203402509035 429.09174468250376L1113.2203402509035 429.09174468250376Q1124.8285916404166 417.90222781205136 1134.7386419248505 417.90222781205136L1134.7386419248505 417.90222781205136Q1138.9027240866199 417.90222781205136 1140.903344566576 419.2980095422533Q1142.9039650465322 420.6705282436186 1142.9039650465322 422.81072689659493L1142.9039650465322 422.81072689659493Q1142.9039650465322 424.92766252073454 1141.5081833163301 425.8814467030393Q1140.1356646149648 426.81196785650724 1138.9027240866199 426.81196785650724L1138.9027240866199 426.81196785650724Q1136.6927363471334 426.81196785650724 1135.1341134150746 426.3234442509365L1135.1341134150746 426.3234442509365Q1132.854336589078 425.50923824165204 1130.4815076477346 425.50923824165204L1130.4815076477346 425.50923824165204Q1126.0615321687617 425.50923824165204 1119.3617798637922 431.627414825704L1119.3617798637922 431.627414825704Q1132.691495387221 438.1875889576533 1136.7625254336435 450.4472051545939L1136.7625254336435 450.4472051545939Q1138.0885180773353 454.541498229853 1138.0885180773353 460.47357058321137Q1138.0885180773353 466.40564293656973 1134.6455898095037 472.2911892322547Q1131.2026615416723 478.1767355279397 1125.4799564478442 482.4338698050557L1125.4799564478442 482.4338698050557Q1113.5460226546174 491.2505577341648 1097.4247436707847 491.2505577341648L1097.4247436707847 491.2505577341648Q1088.9337381453893 491.4133989360217 1080.5823107930144 488.80793970631134ZM1097.773689103335 432.4648838638252L1097.773689103335 485.2952223519697Q1111.010352511417 485.1323811501128 1120.5714573633006 478.82810033536725L1120.5714573633006 478.82810033536725Q1131.6213960607329 471.6398244248271 1131.6213960607329 459.3569451990498Q1131.6213960607329 447.0973290021092 1120.7342985651576 439.5601076590185L1120.7342985651576 439.5601076590185Q1110.7777222230502 432.6975141521922 1097.773689103335 432.4648838638252L1097.773689103335 432.4648838638252ZM1236.3050258258804 495.6007441266276L1236.3050258258804 495.6007441266276Q1239.4920607765084 495.6007441266276 1239.4920607765084 498.5318857600517L1239.4920607765084 498.5318857600517Q1239.4920607765084 500.74187349953814 1236.6307082295943 503.76606724830907L1236.6307082295943 503.76606724830907Q1223.719727225226 517.0259936852278 1201.2243783401377 517.0259936852278L1201.2243783401377 517.0259936852278Q1181.0088062810457 517.0259936852278 1167.1905671520462 504.83616657479723L1167.1905671520462 504.83616657479723Q1152.883804417476 492.157815858796 1152.883804417476 472.7797128378254L1152.883804417476 472.7797128378254Q1152.883804417476 452.9828752977941 1165.818048450681 440.2347354952828L1165.818048450681 440.2347354952828Q1179.4734463778236 426.64912665465033 1202.1083734359322 426.64912665465033L1202.1083734359322 426.64912665465033Q1220.2767989573945 426.64912665465033 1232.629467269682 437.6990653520826L1232.629467269682 437.6990653520826Q1245.9591827931108 449.5399470299626 1245.9591827931108 468.84826096442316L1245.9591827931108 468.84826096442316Q1245.9591827931108 471.6398244248271 1245.7963415912538 474.7338072601081L1245.7963415912538 474.7338072601081L1191.8028516612744 474.7338072601081L1191.8028516612744 509.8144547458509Q1197.3859785820823 510.9776061876859 1204.3183611754187 510.9776061876859L1204.3183611754187 510.9776061876859Q1219.0438584290496 510.9776061876859 1229.442432319054 501.23039710510886L1229.442432319054 501.23039710510886Q1231.5593679431938 499.1134614809692 1232.466626067825 497.8805209526241L1232.466626067825 497.8805209526241Q1234.3509314035978 495.6007441266276 1236.3050258258804 495.6007441266276ZM1214.4610417482197 468.7784718779131L1214.4610417482197 434.16308496890423Q1209.157071173452 432.6277250656821 1202.4573188684828 432.6277250656821Q1195.7343035346767 432.6277250656821 1191.8028516612744 433.5117201614767L1191.8028516612744 433.5117201614767L1191.8028516612744 468.7784718779131L1214.4610417482197 468.7784718779131ZM1274.0143955701703 465.4983848119385L1274.0143955701703 465.4983848119385L1265.0116034103676 465.98690841750914Q1263.057508988085 465.98690841750914 1261.7780424020664 465.00986120636776Q1260.5218388448845 464.0328139952264 1260.5218388448845 462.47419106316755L1260.5218388448845 462.47419106316755Q1260.5218388448845 458.8684215934791 1265.0116034103676 458.8684215934791L1265.0116034103676 458.8684215934791Q1265.0116034103676 458.8684215934791 1276.7129069152274 459.6128385162535L1276.7129069152274 459.6128385162535L1285.2969645559695 459.6128385162535L1298.3009976756846 458.8684215934791Q1302.9536034430246 458.8684215934791 1302.9536034430246 462.42766500549413Q1302.9536034430246 465.98690841750914 1297.9753152719709 465.98690841750914L1297.9753152719709 465.98690841750914Q1296.5795335417688 465.98690841750914 1295.346593013424 465.917119330999L1295.346593013424 465.917119330999L1292.8109228702235 465.73101510030546Q1290.600935130737 465.4983848119385 1286.274011767111 465.4983848119385L1286.274011767111 465.4983848119385Q1280.1325721542223 465.4983848119385 1274.0143955701703 465.4983848119385ZM1424.4098769994325 509.48877234213717L1424.4098769994325 509.48877234213717L1424.5727182012893 503.8591193636559L1424.5727182012893 490.92487533045096Q1413.0342558982863 510.14013714956474 1390.538907013198 515.3743186378222L1390.538907013198 515.3743186378222Q1383.4436832180045 517.0259936852278 1373.9988935103047 517.0259936852278Q1364.530840773768 517.0259936852278 1354.4346862586403 513.0945418118256Q1344.3385317435127 509.16308993842335 1336.7315213139123 501.7189207106795L1336.7315213139123 501.7189207106795Q1320.0519296379987 485.5278526403367 1320.0519296379987 459.1243149106828L1320.0519296379987 459.1243149106828Q1320.0519296379987 433.8374025651905 1337.7085685250536 416.3436048799925L1337.7085685250536 416.3436048799925Q1356.109624334883 398.268231473877 1383.9322068235756 398.268231473877L1383.9322068235756 398.268231473877Q1397.983076240942 398.268231473877 1409.358697342088 403.5024129621344L1409.358697342088 403.5024129621344Q1416.314342964261 406.6196588262521 1419.175695511175 409.27164411363583Q1422.037048058089 411.9236294010196 1422.037048058089 413.5287783907518Q1422.037048058089 415.1106643516474 1421.0600008469478 416.27381579348236Q1420.0829536358065 417.41370420648065 1418.314963444217 417.41370420648065Q1416.546973252628 417.41370420648065 1414.4300376284884 415.52939887070795L1414.4300376284884 415.52939887070795Q1408.1257568137428 409.9695349787368 1403.3568359022192 408.24807084482103Q1398.5646519618595 406.5266067109053 1395.7032994149454 405.8054528169676Q1392.8419468680313 405.0610358941932 1390.538907013198 404.73535349047944L1390.538907013198 404.73535349047944Q1387.0261896588563 404.2468298849087 1382.2107426896596 404.2468298849087Q1377.3720326916261 404.2468298849087 1373.3010026452039 405.0610358941932L1373.3010026452039 405.0610358941932L1373.3010026452039 510.88455407233914Q1374.1849977409984 510.9776061876859 1375.0922558656296 510.9776061876859L1375.0922558656296 510.9776061876859L1376.7206678841985 510.9776061876859Q1401.0072699897128 510.9776061876859 1416.0584496470574 492.5765503778566L1416.0584496470574 492.5765503778566Q1421.2228420488045 486.2722695631111 1424.5727182012893 477.688211922369L1424.5727182012893 477.688211922369L1424.5727182012893 469.82530817556454Q1424.5727182012893 469.82530817556454 1424.1539836822287 462.47419106316755L1424.1539836822287 462.47419106316755Q1424.1539836822287 458.14726769954143 1427.5969119500603 458.14726769954143L1427.5969119500603 458.14726769954143Q1429.388165170486 458.14726769954143 1430.3884754104643 459.3336821702131Q1431.3655226216056 460.4968336120481 1431.3655226216056 462.2182977459638L1431.3655226216056 462.2182977459638L1430.876999016035 469.01110216628007L1430.876999016035 499.439143884683L1431.3655226216056 512.1174946006843Q1431.3655226216056 514.0715890229669 1430.248897237444 515.2114774359652Q1429.1555348821194 516.3746288778002 1427.6899640654071 516.3746288778002L1427.6899640654071 516.3746288778002Q1424.0841945957186 516.3746288778002 1424.0841945957186 512.6060182062549L1424.0841945957186 512.6060182062549Q1424.0841945957186 511.6289709951135 1424.4098769994325 509.48877234213717ZM1503.08544052515 500.90471470139505L1480.1946201498379 500.90471470139505Q1465.2132295790034 500.90471470139505 1459.7464178023788 500.6720844130281L1459.7464178023788 500.6720844130281L1457.3735888610356 506.30173739150933Q1456.3034895345475 508.6745663328527 1455.3962314099163 511.30328859139973L1455.3962314099163 511.30328859139973Q1453.5119260741435 516.3746288778002 1450.1620499216588 516.3746288778002L1450.1620499216588 516.3746288778002Q1448.6266900184366 516.3746288778002 1447.6263797784586 515.3743186378222Q1446.6493325673173 514.3972714266807 1446.6493325673173 513.3504351290293L1446.6493325673173 513.3504351290293Q1446.6493325673173 511.5359188797667 1448.207955499376 509.32593114028026L1448.207955499376 509.32593114028026Q1450.6505735272294 505.90626590128545 1453.0234024685728 500.34640200931426L1453.0234024685728 500.34640200931426Q1445.9979677598897 499.67177417305 1445.9979677598897 496.2521089340552Q1445.9979677598897 492.80918066622365 1449.9992087198018 492.80918066622365L1449.9992087198018 492.80918066622365Q1452.465089776492 492.80918066622365 1455.7219138136302 493.62338667550813L1455.7219138136302 493.62338667550813L1496.5485294220375 394.49962080233166L1552.472850745463 515.467370753169L1509.8782449454663 515.467370753169L1503.08544052515 500.90471470139505ZM1479.938726832634 450.8659396736545L1462.3518770320893 494.2747514829357Q1470.2147807788938 494.9493793192 1476.4260094782926 494.9493793192L1476.4260094782926 494.9493793192L1500.386929180093 494.9493793192L1479.938726832634 450.8659396736545ZM1640.639730036554 508.0232015254251L1640.639730036554 508.0232015254251Q1644.9899164290168 508.0232015254251 1644.9899164290168 511.6987600816236L1644.9899164290168 511.6987600816236Q1644.9899164290168 513.1875939271724 1643.2219262374279 514.3274823401707Q1641.4539360458384 515.467370753169 1636.9641714803556 515.467370753169L1636.9641714803556 515.467370753169L1570.5482241515786 515.467370753169L1570.5482241515786 399.73380229058904L1612.2588348557806 399.73380229058904L1612.2588348557806 510.0703480630546L1627.5659078303288 510.0703480630546Q1632.7070372032395 510.0703480630546 1636.4291218171115 509.04677479423987Q1640.1512064309834 508.0232015254251 1640.639730036554 508.0232015254251ZM1730.690914663418 508.0232015254251L1730.690914663418 508.0232015254251Q1735.017838027044 508.0232015254251 1735.017838027044 511.6987600816236L1735.017838027044 511.6987600816236Q1735.017838027044 513.1875939271724 1733.2731108642915 514.3274823401707Q1731.505120672702 515.467370753169 1727.0153561072193 515.467370753169L1727.0153561072193 515.467370753169L1660.5994087784425 515.467370753169L1660.5994087784425 399.73380229058904L1702.3100194826443 399.73380229058904L1702.3100194826443 510.0703480630546L1717.593829428356 510.0703480630546Q1722.7582218301031 510.0703480630546 1726.4803064439752 509.04677479423987Q1730.2023910578469 508.0232015254251 1730.690914663418 508.0232015254251ZM1805.760708719447 475.8039065865963L1805.760708719447 475.8039065865963L1812.483724053253 476.292430192167Q1826.8602758743332 476.292430192167 1836.9331673606243 466.2428017347128L1836.9331673606243 466.2428017347128Q1846.9827958180786 456.16991024842196 1846.9827958180786 441.2117827064242L1846.9827958180786 441.2117827064242Q1846.9827958180786 421.57778636824986 1829.7216284212473 412.0864706028765L1829.7216284212473 412.0864706028765Q1820.253575684711 406.8522891146191 1809.4362672756456 406.03808310533464L1809.4362672756456 406.03808310533464Q1804.8767136236524 405.6426116151107 1800.9452617502502 405.6426116151107L1800.9452617502502 405.6426116151107L1795.3853978582788 405.6426116151107Q1793.6639337243632 405.6426116151107 1792.361204109508 405.7124007016208L1792.361204109508 405.7124007016208L1792.361204109508 515.467370753169L1750.6505934053057 515.467370753169L1750.6505934053057 399.73380229058904Q1769.7728031090728 399.73380229058904 1781.6369478157894 399.73380229058904Q1793.5010925225065 399.73380229058904 1797.1068619921948 399.8268544059358Q1800.6893684330466 399.89664349244595 1803.5274579511238 400.03622166546614Q1806.3422844403644 400.15253680964963 1808.7849024682178 400.31537801150654L1808.7849024682178 400.31537801150654Q1812.390671937906 400.6410604152203 1818.9741090986922 401.8740009435654Q1825.5575462594784 403.1069414719105 1832.0246682760808 406.5266067109053Q1838.4917902926832 409.9695349787368 1843.1443960600227 415.0408752651373L1843.1443960600227 415.0408752651373Q1853.194024517477 425.83492064536586 1853.194024517477 440.7232591008535L1853.194024517477 440.7232591008535Q1853.194024517477 455.44875635448426 1843.8888129827974 466.7313253402835L1843.8888129827974 466.7313253402835Q1834.304445102077 478.24652461444975 1818.3692703489382 481.6196637957712L1818.3692703489382 481.6196637957712Q1825.9762807785387 505.16184897851105 1837.7473733699085 509.74466565934085L1837.7473733699085 509.74466565934085Q1841.3531428395972 511.1404473895428 1844.935649280449 511.1404473895428L1844.935649280449 511.1404473895428L1851.402771297051 509.58182445748395Q1854.4269650458223 509.58182445748395 1854.4269650458223 512.6758072927651L1854.4269650458223 512.6758072927651Q1854.4269650458223 517.0259936852278 1844.2842844730212 517.0259936852278L1844.2842844730212 517.0259936852278Q1836.9331673606243 517.0259936852278 1830.7917277477354 512.9317006099686L1830.7917277477354 512.9317006099686Q1821.2306228958519 507.2089955161406 1814.507607562046 490.692245042084L1814.507607562046 490.692245042084L1812.1580416495394 484.8764878329091Q1811.576465928622 483.48070610270713 1811.1344683807247 483.1550236989934Q1810.6692078039905 482.82934129527956 1809.5758454486654 482.82934129527956Q1808.4592200645043 482.82934129527956 1807.6450140552197 482.99218249713647L1807.6450140552197 482.99218249713647L1805.690919632937 483.08523461248325Q1802.4108325669622 483.08523461248325 1801.2244180962907 481.8522940841382Q1800.0380036256188 480.6193535557931 1800.0380036256188 479.316623940938L1800.0380036256188 479.316623940938Q1800.0380036256188 475.8039065865963 1805.760708719447 475.8039065865963ZM1904.000479496829 512.1174946006843Q1901.8602808438527 516.3746288778002 1898.3475634895108 516.3746288778002Q1894.8348461351693 516.3746288778002 1894.8348461351693 512.7688594081118L1894.8348461351693 512.7688594081118Q1894.8348461351693 510.55887166862533 1896.9517817593091 507.953412438915L1896.9517817593091 507.953412438915Q1901.2089160364249 502.8820721525145 1905.0473157944803 496.2521089340552L1905.0473157944803 496.2521089340552L1909.234660985086 488.80793970631134L1860.638193745221 399.73380229058904L1908.327402860455 399.73380229058904L1931.706746841338 449.05142342439194L1952.6434727943674 411.85384031450945Q1954.9465126492005 407.59670603739346 1956.5749246677697 403.223256616094Q1958.2033366863384 398.8498071947945 1960.9018480313957 398.8498071947945L1960.9018480313957 398.8498071947945Q1964.274987212717 398.8498071947945 1964.274987212717 402.1996833472792L1964.274987212717 402.1996833472792Q1964.274987212717 404.15377776956194 1962.7861533671685 406.6894479127622L1962.7861533671685 406.6894479127622L1906.8618320437427 506.46457859336624Q1905.9545739191117 508.1162536407719 1905.3729981981942 509.16308993842335L1905.3729981981942 509.16308993842335L1904.000479496829 512.1174946006843Z " fill="#b88746" transform="matrix(0.4454569696832601,0,0,0.4454569696832601,0,90.85813228872277)"/></g></svg>